HIERARCHY
ROOT Hips
{
	OFFSET -0.001795 -0.223333 0.028219
	CHANNELS 6 Xposition Yposition Zposition Zrotation Yrotation Xrotation 
	JOINT LeftUpLeg
	{
		OFFSET 0.069520 -0.091406 -0.006815
		CHANNELS 3 Zrotation Yrotation Xrotation
		JOINT LeftLeg
		{
			OFFSET 0.034277 -0.375199 -0.004496
			CHANNELS 3 Zrotation Yrotation Xrotation
			JOINT LeftFoot
			{
				OFFSET -0.013596 -0.397961 -0.043693
				CHANNELS 3 Zrotation Yrotation Xrotation
				JOINT LeftToe
				{
					OFFSET 0.026358 -0.055791 0.119288
					CHANNELS 3 Zrotation Yrotation Xrotation
					End Site
					{
						OFFSET 0.000000 0.000000 0.000000
					}
				}
			}
		}
	}
	JOINT RightUpLeg
	{
		OFFSET -0.067670 -0.090522 -0.004320
		CHANNELS 3 Zrotation Yrotation Xrotation
		JOINT RightLeg
		{
			OFFSET -0.038290 -0.382569 -0.008850
			CHANNELS 3 Zrotation Yrotation Xrotation
			JOINT RightFoot
			{
				OFFSET 0.015774 -0.398415 -0.042312
				CHANNELS 3 Zrotation Yrotation Xrotation
				JOINT RightToe
				{
					OFFSET -0.025372 -0.048144 0.123348
					CHANNELS 3 Zrotation Yrotation Xrotation
					End Site
					{
						OFFSET 0.000000 0.000000 0.000000
					}
				}
			}
		}
	}
	JOINT Spine
	{
		OFFSET -0.002533 0.108963 -0.026696
		CHANNELS 3 Zrotation Yrotation Xrotation
		JOINT Spine1
		{
			OFFSET 0.005487 0.135180 0.001092
			CHANNELS 3 Zrotation Yrotation Xrotation
			JOINT Spine2
			{
				OFFSET 0.001457 0.052922 0.025425
				CHANNELS 3 Zrotation Yrotation Xrotation
				JOINT Neck
				{
					OFFSET -0.002778 0.213870 -0.042857
					CHANNELS 3 Zrotation Yrotation Xrotation
					JOINT Head
					{
						OFFSET 0.005152 0.064970 0.051349
						CHANNELS 3 Zrotation Yrotation Xrotation
						End Site
						{
							OFFSET 0.000000 0.000000 0.000000
						}
					}
				}
				JOINT LeftShoulder
				{
					OFFSET 0.078845 0.121749 -0.034090
					CHANNELS 3 Zrotation Yrotation Xrotation
					JOINT LeftArm
					{
						OFFSET 0.090977 0.030469 -0.008868
						CHANNELS 3 Zrotation Yrotation Xrotation
						JOINT LeftForeArm
						{
							OFFSET 0.259612 -0.012772 -0.027456
							CHANNELS 3 Zrotation Yrotation Xrotation
							JOINT LeftHand
							{
								OFFSET 0.249234 0.008986 -0.001171
								CHANNELS 3 Zrotation Yrotation Xrotation
								End Site
								{
									OFFSET 0.000000 0.000000 0.000000
								}
							}
						}
					}
				}
				JOINT RightShoulder
				{
					OFFSET -0.081759 0.118833 -0.038615
					CHANNELS 3 Zrotation Yrotation Xrotation
					JOINT RightArm
					{
						OFFSET -0.096012 0.032551 -0.009143
						CHANNELS 3 Zrotation Yrotation Xrotation
						JOINT RightForeArm
						{
							OFFSET -0.253742 -0.013329 -0.021401
							CHANNELS 3 Zrotation Yrotation Xrotation
							JOINT RightHand
							{
								OFFSET -0.255298 0.007772 -0.005559
								CHANNELS 3 Zrotation Yrotation Xrotation
								End Site
								{
									OFFSET 0.000000 0.000000 0.000000
								}
							}
						}
					}
				}
			}
		}
	}
}
MOTION
Frames: 13
Frame Time: 0.050000
0.000000 0.956403 0.000000 -9.143260 0.589912 12.889701 12.366295 -0.192714 -17.973166 -1.660466 0.236065 -3.261932 -5.426818 -5.016640 11.322340 0.000000 0.000000 0.000000 0.624843 0.346717 -3.563882 1.099132 -0.034052 2.536727 -1.714937 -8.331332 12.512919 0.000000 0.000000 0.000000 -4.004001 0.167318 5.424655 -4.473475 2.109791 3.527331 -1.630852 8.183741 5.267763 0.532175 1.712130 -16.471015 0.000000 0.000000 0.000000 -25.800788 -18.111971 5.354846 -22.609412 -15.291097 0.383820 12.041422 -23.726003 -1.835877 0.000000 0.000000 0.000000 28.398612 13.320088 10.190184 42.656412 13.830119 -0.737101 -12.966286 18.961345 -0.966450 0.000000 0.000000 0.000000 
0.010184 0.954891 0.003169 -10.701750 -2.851518 13.204581 13.260932 0.074785 -16.029587 -1.351086 0.257112 -4.765455 -4.506939 -3.728680 11.551909 0.000000 0.000000 0.000000 1.311447 0.494089 -5.172439 2.062734 -0.090461 4.086274 -2.254818 -9.492995 11.265048 0.000000 0.000000 0.000000 -4.534436 0.234133 6.206712 -4.840617 2.298438 1.720359 -1.375356 9.611094 6.097989 -1.394455 2.847779 -17.206700 0.000000 0.000000 0.000000 -26.802739 -17.493695 5.113141 -21.424516 -15.369238 0.290809 12.929775 -24.679790 -2.089083 0.000000 0.000000 0.000000 29.879465 13.301540 10.389802 42.515731 15.798517 -0.241558 -14.040444 17.990181 -1.016935 0.000000 0.000000 0.000000 
0.018881 0.954398 0.005243 -10.581271 -4.726377 12.926562 13.372245 0.194317 -15.628396 -1.987758 0.286329 -3.503625 -4.599569 -4.666658 10.250292 0.000000 0.000000 0.000000 1.281444 0.334370 -3.847067 2.310903 -0.148727 2.393214 -1.877187 -9.140652 11.828662 0.000000 0.000000 0.000000 -4.719573 0.259700 6.009373 -4.557921 2.216619 2.463322 -2.514131 10.097834 6.141019 0.346493 1.606240 -14.695334 0.000000 0.000000 0.000000 -24.716616 -19.404418 6.429065 -21.477834 -17.229734 0.485912 13.000184 -22.145793 -1.873625 0.000000 0.000000 0.000000 29.200761 15.698709 11.847669 44.515136 13.933802 -0.705744 -16.271471 22.263085 -1.707010 0.000000 0.000000 0.000000 
0.026181 0.953606 0.006324 -11.838865 -7.232121 14.104330 14.256473 0.451630 -15.679971 -2.044347 0.304093 -3.708754 -3.601506 -3.839253 8.683674 0.000000 0.000000 0.000000 1.421792 0.315124 -3.889046 3.902649 -0.295271 1.631918 -3.680480 -13.005846 13.146551 0.000000 0.000000 0.000000 -4.804991 0.296416 5.441419 -5.240669 2.511947 1.127493 -1.914209 11.112755 7.407950 0.570010 1.560441 -16.049174 0.000000 0.000000 0.000000 -23.749524 -20.534034 7.422043 -21.899444 -17.348913 0.371804 14.950590 -21.306053 -2.146907 0.000000 0.000000 0.000000 28.772948 15.737014 11.587003 46.620474 14.426251 -0.412333 -17.178923 23.380910 -1.951542 0.000000 0.000000 0.000000 
0.031971 0.953963 0.005726 -12.144847 -9.681856 14.451981 14.032188 0.530635 -14.823657 -2.122358 0.329947 -4.214695 -1.799053 -0.793980 8.825959 0.000000 0.000000 0.000000 1.411535 0.244978 -3.405448 4.496667 -0.323471 0.528152 -3.761399 -13.725327 14.614039 0.000000 0.000000 0.000000 -5.016973 0.339724 5.838277 -4.987568 2.399131 0.837110 -2.475856 11.186598 7.164043 1.506957 0.896862 -16.122060 0.000000 0.000000 0.000000 -23.634666 -21.068883 8.193995 -20.435981 -18.354238 0.311899 15.137221 -19.669063 -1.955245 0.000000 0.000000 0.000000 27.938270 16.197635 11.224406 48.274876 14.246527 -0.182217 -18.026954 26.211709 -2.440966 0.000000 0.000000 0.000000 
0.036463 0.954811 0.003801 -12.619023 -12.400016 14.512759 14.290543 0.722630 -14.400636 -1.908097 0.317277 -4.115663 -0.568556 1.340749 9.640348 0.000000 0.000000 0.000000 1.244290 0.208287 -3.140582 5.853481 -0.379978 1.082736 -4.198595 -14.681054 14.573553 0.000000 0.000000 0.000000 -5.175246 0.386669 6.656314 -4.962949 2.375165 0.351292 -2.869783 11.143165 7.074583 2.274489 0.235174 -15.546323 0.000000 0.000000 0.000000 -22.229404 -22.037951 9.239942 -20.373682 -18.401900 0.170923 15.955994 -19.429733 -2.031396 0.000000 0.000000 0.000000 27.784462 16.444971 10.741359 48.696073 14.264561 0.039458 -17.337320 28.779735 -2.648272 0.000000 0.000000 0.000000 
0.040078 0.955158 0.000500 -13.063934 -14.690110 15.379723 14.483788 0.863494 -13.957880 -2.073528 0.365592 -5.227131 0.698112 3.534601 10.948011 0.000000 0.000000 0.000000 1.313430 0.248548 -3.678046 6.341555 -0.364552 1.080861 -4.333441 -15.444523 15.962765 0.000000 0.000000 0.000000 -5.094169 0.404455 6.655575 -4.805328 2.305856 0.235403 -3.233644 11.574815 6.897730 2.555233 0.006375 -15.708590 0.000000 0.000000 0.000000 -21.413058 -22.486264 9.724835 -19.584038 -19.566798 0.181498 16.269365 -19.511870 -2.064696 0.000000 0.000000 0.000000 26.322605 16.758102 10.368358 50.388219 15.062423 0.616660 -18.228727 30.239544 -3.055572 0.000000 0.000000 0.000000 
0.043466 0.955533 -0.004008 -13.568391 -17.591714 15.836089 14.417817 1.092142 -14.263748 -1.510076 0.303467 -4.631014 2.409159 6.170980 11.598749 0.000000 0.000000 0.000000 1.224037 0.299071 -4.235651 6.967550 -0.348118 2.130046 -4.418668 -15.866196 15.977359 0.000000 0.000000 0.000000 -5.219301 0.448442 6.881806 -4.408863 2.064408 -0.672178 -3.262004 11.883479 7.257784 3.652037 -0.730032 -16.265496 0.000000 0.000000 0.000000 -21.200921 -22.074246 9.957984 -18.844714 -20.141699 0.061621 16.308920 -20.424512 -2.127918 0.000000 0.000000 0.000000 25.653259 16.976142 9.857118 50.343546 15.197344 0.804142 -17.063225 30.552907 -2.901930 0.000000 0.000000 0.000000 
0.046989 0.955445 -0.009549 -13.800064 -19.842586 16.489465 14.564445 1.266174 -14.056486 -1.864777 0.377309 -5.794308 4.026211 8.674559 13.312351 0.000000 0.000000 0.000000 1.005324 0.353891 -4.750411 6.905156 -0.293867 2.397587 -4.972298 -17.100142 16.829760 0.000000 0.000000 0.000000 -5.121833 0.459790 6.938675 -4.106502 1.909208 -0.936352 -3.334429 11.945977 7.541638 3.888216 -0.971653 -16.569891 0.000000 0.000000 0.000000 -20.677709 -22.651849 10.699877 -19.162899 -20.721307 0.028804 16.206354 -22.335766 -2.275795 0.000000 0.000000 0.000000 24.743356 17.583740 9.625248 50.717518 15.544271 1.092589 -17.542624 30.359096 -3.089079 0.000000 0.000000 0.000000 
0.050849 0.955666 -0.015967 -14.222015 -22.730068 16.822467 14.583161 1.549854 -14.470636 -2.005377 0.386924 -5.286795 5.235195 10.263397 14.048543 0.000000 0.000000 0.000000 1.066062 0.376298 -5.104412 6.825417 -0.227651 2.869821 -5.618965 -18.443815 17.699840 0.000000 0.000000 0.000000 -5.138698 0.481893 6.920737 -4.051493 1.869060 -1.181026 -3.299859 11.895379 7.828863 4.592424 -1.513703 -17.142493 0.000000 0.000000 0.000000 -20.766806 -22.629731 11.299356 -19.427594 -21.492395 0.003100 15.959384 -24.376178 -2.386720 0.000000 0.000000 0.000000 24.176643 18.865551 9.671928 50.025890 15.019433 1.008954 -17.195976 29.923962 -3.103167 0.000000 0.000000 0.000000 
0.054795 0.957056 -0.023169 -13.982813 -25.605376 16.772936 14.531363 1.739866 -14.119762 -3.032036 0.524645 -5.552269 6.747564 12.294415 15.111600 0.000000 0.000000 0.000000 0.118057 0.426872 -5.211175 7.033352 -0.174294 3.364738 -6.463459 -19.743158 17.676900 0.000000 0.000000 0.000000 -5.307578 0.543422 7.421527 -3.693721 1.673047 -1.578404 -3.231638 11.539235 8.518371 4.610940 -1.677640 -17.880965 0.000000 0.000000 0.000000 -20.211341 -23.229835 12.268121 -21.036703 -21.982962 0.009991 15.983814 -27.305415 -2.618199 0.000000 0.000000 0.000000 23.851362 19.430389 9.202280 49.452233 15.251734 1.218423 -17.127744 29.416851 -3.171267 0.000000 0.000000 0.000000 
0.058230 0.958673 -0.031302 -13.824680 -29.298377 16.567777 14.222736 1.963941 -13.912719 -3.462526 0.595963 -5.046340 8.094784 13.809711 16.457796 0.000000 0.000000 0.000000 -0.597395 0.478277 -5.388951 6.597647 -0.079019 3.819825 -7.333467 -21.301965 19.187979 0.000000 0.000000 0.000000 -5.599362 0.608516 7.342643 -3.133474 1.482792 -0.999915 -3.403100 10.885283 8.051122 5.677626 -2.482794 -18.663767 0.000000 0.000000 0.000000 -20.085297 -22.653138 12.678460 -22.574720 -22.925436 0.140352 14.555526 -29.973150 -2.420368 0.000000 0.000000 0.000000 23.881136 20.636136 8.929508 48.517843 14.101697 1.035649 -15.348752 28.891186 -2.880322 0.000000 0.000000 0.000000 
0.060271 0.960295 -0.040196 -13.048728 -32.468065 16.504369 13.577028 2.068678 -13.957249 -4.264345 0.735352 -4.971831 9.534458 15.484152 17.558979 0.000000 0.000000 0.000000 -1.700884 0.626972 -6.199858 6.933254 -0.003327 5.119529 -10.021101 -24.632021 19.811633 0.000000 0.000000 0.000000 -5.801864 0.648965 6.946857 -2.553327 1.185110 -1.421379 -3.143022 10.290291 8.928105 6.273146 -3.003454 -19.807240 0.000000 0.000000 0.000000 -19.734573 -22.921566 13.585239 -25.242970 -24.311914 0.413152 13.705068 -33.154908 -2.309969 0.000000 0.000000 0.000000 24.201918 20.944189 8.121306 47.273010 13.326388 0.927417 -14.819595 28.361762 -2.871697 0.000000 0.000000 0.000000 
